<?xml version="1.0" encoding="UTF-8"?>
<svg version="1.1" xmlns="http://www.w3.org/2000/svg" width="698" height="207">
<path d="M0 0 C0.88389404 -0.00511093 1.76778809 -0.01022186 2.6784668 -0.01548767 C5.58405434 -0.02932365 8.48940307 -0.02843134 11.39501953 -0.02612305 C13.42611783 -0.0300134 15.45721532 -0.03434877 17.48831177 -0.03910828 C21.73995606 -0.04655771 25.99151729 -0.04628856 30.24316406 -0.04101562 C35.67570973 -0.03522422 41.10791409 -0.05215041 46.54040337 -0.0753603 C50.73387622 -0.09013455 54.9272676 -0.09096429 59.12076187 -0.08785057 C61.1229126 -0.08836197 63.12506811 -0.09356554 65.12719345 -0.10366249 C67.93397571 -0.11608061 70.74010224 -0.10920302 73.546875 -0.09765625 C74.36378815 -0.10529999 75.18070129 -0.11294373 76.02236938 -0.12081909 C83.87292285 -0.04989017 90.53816703 2.35222715 97.46533203 5.9621582 C98.31224609 6.39915039 99.15916016 6.83614258 100.03173828 7.28637695 C100.95792969 7.77557617 100.95792969 7.77557617 101.90283203 8.2746582 C101.90283203 8.9346582 101.90283203 9.5946582 101.90283203 10.2746582 C102.45970703 10.4809082 103.01658203 10.6871582 103.59033203 10.8996582 C110.19737461 14.82817001 114.33013798 22.91980129 116.44094849 30.10688782 C118.48511151 38.8362952 118.17308824 47.67789495 118.13330078 56.58325195 C118.13210596 58.35864732 118.13165646 60.13404333 118.13191223 61.90943909 C118.13035503 65.61691287 118.12212552 69.32428905 118.10864258 73.03173828 C118.09166663 77.75654188 118.08782847 82.48123846 118.08858776 87.20606899 C118.08831429 90.86860656 118.08280455 94.53112129 118.07558632 98.1936512 C118.07243007 99.9345692 118.07043946 101.67548975 118.06969261 103.41641045 C118.03867304 137.92609103 118.03867304 137.92609103 104.90283203 151.2746582 C92.08924877 162.27926501 78.06439571 163.00512035 62.04345703 162.83325195 C60.04335846 162.82899186 58.04325491 162.82667216 56.04315186 162.82618713 C51.87423916 162.82005649 47.70587109 162.79752097 43.53710938 162.76171875 C38.21238042 162.71633203 32.88814082 162.70168384 27.56323624 162.69798183 C23.4418055 162.69354017 19.32047576 162.67821514 15.19908905 162.6591053 C13.23602877 162.65027368 11.27295793 162.64351941 9.30988312 162.63894463 C6.56366629 162.62983385 3.81787659 162.60738765 1.07177734 162.58105469 C0.2736412 162.58039001 -0.52449493 162.57972534 -1.34681702 162.57904053 C-13.50333724 162.41933136 -23.06826136 158.35712317 -32.27294922 150.3918457 C-34.10515982 148.44994622 -35.60478205 146.48790938 -37.09716797 144.2746582 C-37.66306641 143.4599707 -38.22896484 142.6452832 -38.81201172 141.8059082 C-42.20219785 136.12634932 -43.52583607 130.87073828 -43.73779297 124.31762695 C-43.77168121 123.48238998 -43.80556946 122.64715302 -43.84048462 121.78660583 C-44.32307231 108.13217386 -44.3913814 94.45940167 -44.43820381 80.79771996 C-44.45342338 76.35883619 -44.47870491 71.92056863 -44.52929688 67.48193359 C-44.57892571 63.12103717 -44.60341662 58.76065501 -44.61049271 54.39948845 C-44.61713283 52.76064292 -44.63216114 51.12180565 -44.65638351 49.48312569 C-44.86945779 34.23075844 -41.75297138 22.77784161 -31.09716797 11.2746582 C-30.46552734 10.57727539 -29.83388672 9.87989258 -29.18310547 9.16137695 C-26.83973419 7.0418108 -24.6734291 5.91630028 -21.78466797 4.6496582 C-20.88103516 4.24489258 -19.97740234 3.84012695 -19.04638672 3.4230957 C-12.5372937 0.88842902 -6.90635395 -0.02084131 0 0 Z " fill="#5F81FD" transform="translate(62.09716796875,23.725341796875)"/>
<path d="M0 0 C4.68441671 2.88038568 8.10998208 5.39024679 9.6015625 10.859375 C9.81965935 15.20573361 9.77570577 19.51224302 9.6015625 23.859375 C12.5715625 23.859375 15.5415625 23.859375 18.6015625 23.859375 C18.52035156 23.01375 18.43914062 22.168125 18.35546875 21.296875 C17.77521028 10.87590662 17.77521028 10.87590662 21.9140625 6.171875 C24.67594771 3.46789095 27.17030309 1.07406391 31.1015625 0.484375 C33.6015625 0.859375 33.6015625 0.859375 35.4140625 2.484375 C36.94686478 5.54997957 37.10567196 7.47464002 36.6015625 10.859375 C34.9140625 12.734375 34.9140625 12.734375 32.6015625 13.859375 C30.9515625 13.859375 29.3015625 13.859375 27.6015625 13.859375 C27.2715625 17.159375 26.9415625 20.459375 26.6015625 23.859375 C28.1484375 23.529375 29.6953125 23.199375 31.2890625 22.859375 C34.79165861 22.1121545 38.01551218 21.6053883 41.6015625 21.859375 C43.9765625 23.484375 43.9765625 23.484375 45.6015625 25.859375 C45.45362248 29.5578754 45.24350677 31.21743073 42.6015625 33.859375 C40.08675618 33.96382864 37.69430782 33.94937205 35.1875 33.8359375 C34.45786041 33.81091156 33.72822083 33.78588562 32.97647095 33.76010132 C30.64270018 33.67783285 28.30976728 33.58127207 25.9765625 33.484375 C24.39586772 33.42614228 22.81513841 33.36883885 21.234375 33.3125 C17.35628767 33.17224433 13.478892 33.01916721 9.6015625 32.859375 C9.6015625 36.819375 9.6015625 40.779375 9.6015625 44.859375 C11.86 44.3334375 11.86 44.3334375 14.1640625 43.796875 C18.72737756 42.88421199 22.0910214 42.73173973 26.6015625 43.859375 C27.2615625 44.519375 27.9215625 45.179375 28.6015625 45.859375 C28.14002404 52.32091346 28.14002404 52.32091346 25.6015625 54.859375 C22.0390625 55.046875 22.0390625 55.046875 18.6015625 54.859375 C18.2715625 54.529375 17.9415625 54.199375 17.6015625 53.859375 C16.25409166 53.62862418 14.89778685 53.44784437 13.5390625 53.296875 C12.2396875 53.1525 10.9403125 53.008125 9.6015625 52.859375 C9.6015625 57.149375 9.6015625 61.439375 9.6015625 65.859375 C11.34824219 65.82457031 13.09492187 65.78976563 14.89453125 65.75390625 C17.19269871 65.72576542 19.49087658 65.69846558 21.7890625 65.671875 C23.51479492 65.63416992 23.51479492 65.63416992 25.27539062 65.59570312 C26.38720703 65.58603516 27.49902344 65.57636719 28.64453125 65.56640625 C30.17630005 65.54284058 30.17630005 65.54284058 31.73901367 65.51879883 C35.84984625 66.00789149 38.49251226 67.66817289 41.2890625 70.671875 C42.88289675 73.32826542 43.75116012 75.88296667 44.6015625 78.859375 C44.8903125 79.705 45.1790625 80.550625 45.4765625 81.421875 C45.6015625 83.859375 45.6015625 83.859375 44.1015625 86.734375 C41.6015625 88.859375 41.6015625 88.859375 37.9765625 88.859375 C34.6015625 87.859375 34.6015625 87.859375 32.6015625 84.859375 C32.66015625 82.6328125 32.66015625 82.6328125 33.0390625 80.234375 C33.26246117 78.78110785 33.45872235 77.32275774 33.6015625 75.859375 C32.57441589 74.6088437 32.57441589 74.6088437 30.37670898 74.74584961 C29.41837158 74.75108643 28.46003418 74.75632324 27.47265625 74.76171875 C26.43818359 74.76494141 25.40371094 74.76816406 24.33789062 74.77148438 C23.24927734 74.77986328 22.16066406 74.78824219 21.0390625 74.796875 C19.94658203 74.80138672 18.85410156 74.80589844 17.72851562 74.81054688 C15.01947755 74.82237674 12.31054651 74.83885957 9.6015625 74.859375 C9.35269287 75.39771973 9.10382324 75.93606445 8.84741211 76.49072266 C5.77439505 82.92200961 2.40813663 86.71207677 -3.8359375 90.234375 C-10.4872756 91.85665259 -16.40870909 91.0984556 -22.3984375 87.859375 C-25.2109375 85.421875 -25.2109375 85.421875 -27.3984375 82.859375 C-28.23375 81.993125 -28.23375 81.993125 -29.0859375 81.109375 C-30.45041075 78.77027801 -30.75507268 77.18820938 -31.2109375 74.546875 C-32.07984675 70.02409093 -33.90262114 67.70734468 -37 64.3984375 C-40.565759 60.47411055 -40.77023306 56.22109314 -40.66015625 51.140625 C-40.11893262 46.42309364 -38.01673959 42.78682814 -35.3984375 38.859375 C-35.52745384 36.63474731 -35.52745384 36.63474731 -36.0234375 34.234375 C-36.70425546 28.5387516 -35.6005006 24.6081974 -32.3984375 19.859375 C-30.26139484 17.55611791 -28.06391514 15.53350504 -25.3984375 13.859375 C-24.7384375 13.859375 -24.0784375 13.859375 -23.3984375 13.859375 C-23.3159375 13.158125 -23.2334375 12.456875 -23.1484375 11.734375 C-22.02974221 7.44604305 -20.29864813 4.22870638 -16.63671875 1.58984375 C-11.11867342 -1.47814609 -5.86328863 -2.78840436 0 0 Z " fill="#F6FAFD" transform="translate(95.3984375,58.140625)"/>
<path d="M0 0 C1.98181272 -0.00957513 3.96348387 -0.04070231 5.94506836 -0.07226562 C17.07446528 -0.11739242 26.5421953 1.03704522 34.89624023 8.95898438 C42.59278424 17.04035558 44.27646598 26.25486661 44.08374023 37.24023438 C42.95486392 46.17260521 39.95041875 54.18466895 32.90405273 60.05664062 C26.27291698 64.68950483 20.39917632 66.5574015 12.27905273 66.43554688 C11.63637451 66.43353271 10.99369629 66.43151855 10.33154297 66.42944336 C7.95709479 66.41906969 5.58307311 66.39122302 3.20874023 66.36523438 C0.33228769 66.34130138 -2.54418325 66.31991672 -5.4206543 66.29833984 C-6.84970124 66.28730212 -8.27874789 66.2762273 -9.70779419 66.2651062 C-10.76658783 66.2568985 -11.82538147 66.2486908 -12.91625977 66.24023438 C-12.93938636 57.78256104 -12.95717646 49.32490081 -12.96807194 40.86720371 C-12.97330008 36.94034779 -12.98039646 33.01351343 -12.99169922 29.08666992 C-13.00253057 25.3000918 -13.00853712 21.51353447 -13.01113701 17.72694206 C-13.01299081 16.27919118 -13.01661057 14.83144149 -13.02198982 13.38369942 C-13.02920344 11.36266303 -13.02966785 9.3416059 -13.02978516 7.32055664 C-13.03200577 6.16805923 -13.03422638 5.01556183 -13.03651428 3.82814026 C-12.75230316 -2.28815092 -4.74544831 0.0138469 0 0 Z M2.08374023 12.24023438 C2.08374023 26.10023437 2.08374023 39.96023437 2.08374023 54.24023438 C14.10347731 55.09436952 14.10347731 55.09436952 24.08374023 50.24023438 C29.81962173 42.33447396 29.51388862 33.53619888 28.08374023 24.24023438 C26.39391657 19.50872812 24.38599243 16.85899658 20.08374023 14.24023438 C13.90572118 12.12480372 8.78548237 12.24023438 2.08374023 12.24023438 Z " fill="#B0B5BF" transform="translate(583.916259765625,70.759765625)"/>
<path d="M0 0 C6.27 0 12.54 0 19 0 C22.61280571 8.7662343 25.81430075 17.66819647 29.00854492 26.59301758 C29.92950651 29.16517496 30.85419051 31.73597149 31.77929688 34.30664062 C42 62.76732565 42 62.76732565 42 66 C36.72 66 31.44 66 26 66 C23 59 23 59 21 51 C13.74 51 6.48 51 -1 51 C-1.474375 52.7325 -1.94875 54.465 -2.4375 56.25 C-2.70433594 57.22453125 -2.97117188 58.1990625 -3.24609375 59.203125 C-3.85506921 61.46232931 -4.43250524 63.73002095 -5 66 C-10.61 66 -16.22 66 -22 66 C-19.71225685 58.18647724 -17.17838127 50.47869656 -14.55078125 42.7734375 C-14.13330124 41.54460846 -13.71582123 40.31577942 -13.28569031 39.04971313 C-12.18747196 35.81723403 -11.08713799 32.58547917 -9.98632812 29.35388184 C-8.85872145 26.04235432 -7.73316368 22.73013058 -6.60742188 19.41796875 C-4.4069275 12.94463798 -2.20400277 6.47213708 0 0 Z M9 15 C7.99604779 18.7906316 6.99750906 22.58266824 6 26.375 C5.71382812 27.45523438 5.42765625 28.53546875 5.1328125 29.6484375 C4.86210937 30.6796875 4.59140625 31.7109375 4.3125 32.7734375 C3.93544922 34.20308838 3.93544922 34.20308838 3.55078125 35.66162109 C2.92357803 37.92405981 2.92357803 37.92405981 3 40 C7.62 40 12.24 40 17 40 C14.95838673 31.5537319 12.92608728 23.19304439 10 15 C9.67 15 9.34 15 9 15 Z " fill="#F6F7F9" transform="translate(243,71)"/>
<path d="M0 0 C10.8590625 -0.0309375 10.8590625 -0.0309375 21.9375 -0.0625 C24.22550537 -0.071604 26.51351074 -0.08070801 28.87084961 -0.09008789 C30.67301372 -0.09300695 32.4751785 -0.09555553 34.27734375 -0.09765625 C35.22226685 -0.10277222 36.16718994 -0.10788818 37.14074707 -0.11315918 C38.48054626 -0.11334045 38.48054626 -0.11334045 39.84741211 -0.11352539 C40.62684677 -0.115746 41.40628143 -0.11796661 42.20933533 -0.12025452 C44 0 44 0 45 1 C45 4.63 45 8.26 45 12 C34.77 12 24.54 12 14 12 C14 16.95 14 21.9 14 27 C23.24 27 32.48 27 42 27 C43.1898306 29.3796612 43.13349966 30.91485735 43.125 33.5625 C43.12886719 34.77099609 43.12886719 34.77099609 43.1328125 36.00390625 C43 38 43 38 42 39 C39.92737924 39.08767112 37.85179706 39.10695873 35.77734375 39.09765625 C34.51728516 39.09443359 33.25722656 39.09121094 31.95898438 39.08789062 C30.61848891 39.07953403 29.27799412 39.07106907 27.9375 39.0625 C26.59310058 39.0574866 25.2486994 39.05292342 23.90429688 39.04882812 C20.60284567 39.03699497 17.3014174 39.01905886 14 39 C14 43.95 14 48.9 14 54 C16.15402344 53.98839844 18.30804687 53.97679687 20.52734375 53.96484375 C22.60571139 53.95705263 24.68407743 53.95097619 26.76245117 53.94506836 C28.21070073 53.94002899 29.65894517 53.93319747 31.10717773 53.92456055 C33.18474588 53.91247753 35.26224697 53.90676789 37.33984375 53.90234375 C38.59144287 53.89710693 39.84304199 53.89187012 41.13256836 53.88647461 C44 54 44 54 45 55 C45 58.63 45 62.26 45 66 C30.15 66 15.3 66 0 66 C0 44.22 0 22.44 0 0 Z " fill="#A2A8B4" transform="translate(641,71)"/>
<path d="M0 0 C5.17612069 5.04339965 7.25929909 10.30579455 8.4375 17.375 C3.4875 17.375 -1.4625 17.375 -6.5625 17.375 C-7.5525 15.395 -8.5425 13.415 -9.5625 11.375 C-12.90986535 8.34643135 -15.55555825 7.10214353 -20 6.875 C-24.63288764 7.13238265 -28.15734395 8.13745525 -31.5625 11.375 C-36.59736023 18.15269646 -36.3343593 26.29430018 -35.5625 34.375 C-34.7001517 38.93618109 -33.04531881 41.84726781 -29.875 45.3125 C-25.26176694 48.1848904 -21.76665858 48.88183963 -16.4140625 48.03515625 C-13.12823485 47.10071084 -11.16459549 46.23416997 -9.171875 43.390625 C-7.90591916 40.96019431 -7.90591916 40.96019431 -6.5625 37.375 C-1.6125 37.375 3.3375 37.375 8.4375 37.375 C7.33998322 44.39910741 5.61401541 49.35662661 0.4375 54.375 C-8.77992747 60.96911607 -16.44003649 62.02516488 -27.5625 61.375 C-35.39769742 59.74566231 -42.18101715 55.05014501 -46.5625 48.375 C-52.04857642 37.95513674 -53.51837428 26.35690844 -50.3125 14.875 C-47.49181841 6.93051147 -42.47137059 1.14591216 -35.5625 -3.625 C-23.14462328 -8.93434786 -11.19082065 -7.09661797 0 0 Z " fill="#EAECF0" transform="translate(342.5625,76.625)"/>
<path d="M0 0 C5.17612069 5.04339965 7.25929909 10.30579455 8.4375 17.375 C3.4875 17.375 -1.4625 17.375 -6.5625 17.375 C-7.5525 15.395 -8.5425 13.415 -9.5625 11.375 C-12.90986535 8.34643135 -15.55555825 7.10214353 -20 6.875 C-24.62592515 7.13978359 -28.2234474 8.04459779 -31.5625 11.375 C-36.48694617 18.9656404 -36.78027168 28.11504969 -35.08984375 36.8046875 C-33.50997928 41.81862864 -30.96623979 44.63304881 -26.5625 47.375 C-20.99414529 48.83555206 -16.81472752 48.47312052 -11.4140625 46.46875 C-9.2308032 45.40780966 -9.2308032 45.40780966 -8.0625 42.3125 C-7.8975 41.343125 -7.7325 40.37375 -7.5625 39.375 C-7.0675 38.385 -7.0675 38.385 -6.5625 37.375 C-1.6125 37.375 3.3375 37.375 8.4375 37.375 C7.33926348 44.40371371 5.61078444 49.34952369 0.4375 54.375 C-8.83222304 61.10066656 -16.19863682 62.08842639 -27.5625 61.375 C-35.93381198 59.58490813 -42.04014345 54.67279186 -47.015625 47.9140625 C-52.48121943 38.94275851 -52.90607049 27.60886141 -51.0234375 17.47265625 C-48.61100898 8.65801356 -43.84741786 2.76365647 -36.5625 -2.625 C-24.39640425 -9.50910768 -11.3094995 -7.17187773 0 0 Z " fill="#DBDDE3" transform="translate(413.5625,76.625)"/>
<path d="M0 0 C2.36497439 1.86708505 3.66030715 3.32061431 5 6 C5.26604662 9.222792 5.23159402 12.45495022 5.25 15.6875 C5.270625 16.57373047 5.29125 17.45996094 5.3125 18.37304688 C5.34608189 24.04418836 4.73116903 27.99935956 2 33 C-0.68268757 35.54855319 -2.49290529 36.83096843 -6 38 C-6.83333333 39.91666667 -6.83333333 39.91666667 -7 42 C-6.67 42.66 -6.34 43.32 -6 44 C-1.88425629 43.5251065 1.36383344 42.9789756 5 41 C5.11668214 44.87474457 5.18741231 48.74903396 5.25 52.625 C5.30027344 54.26662109 5.30027344 54.26662109 5.3515625 55.94140625 C5.4465587 63.77859292 4.52057903 67.08824552 -0.6875 72.875 C-4.40464366 74.68334016 -7.95462747 74.63690121 -12 74 C-17.51724138 71.24137931 -17.51724138 71.24137931 -18.875 67.75 C-18.91625 67.1725 -18.9575 66.595 -19 66 C-16.03 65.01 -16.03 65.01 -13 64 C-13.33 62.35 -13.66 60.7 -14 59 C-15.051875 58.731875 -16.10375 58.46375 -17.1875 58.1875 C-24.90825489 55.78267471 -24.90825489 55.78267471 -27.1171875 52.17578125 C-28.61093576 48.49428664 -28.45415241 44.90571072 -28 41 C-26.63671361 37.8644413 -25.62169409 36.42630452 -22.8125 34.5 C-22.214375 34.005 -21.61625 33.51 -21 33 C-20.66574265 30.37374861 -20.66574265 30.37374861 -21 28 C-21.99 27.67 -22.98 27.34 -24 27 C-24.32644414 22.83783725 -24.40650982 20.63686538 -22.125 17.0625 C-20 15 -20 15 -18 15 C-17.67 15.66 -17.34 16.32 -17 17 C-15.35 17 -13.7 17 -12 17 C-11.10606714 13.72224618 -11.02459328 11.88523138 -11.75 8.5 C-12 5 -12 5 -10 2.0625 C-6.28066838 -0.49454049 -4.42863214 -0.72468526 0 0 Z " fill="#558DFC" transform="translate(92,66)"/>
<path d="M0 0 C0.95708359 0.00222061 1.91416718 0.00444122 2.9002533 0.00672913 C3.98129837 0.00680466 5.06234344 0.00688019 6.17614746 0.00695801 C7.94018166 0.01469994 7.94018166 0.01469994 9.73985291 0.02259827 C10.93702438 0.02401321 12.13419586 0.02542816 13.36764526 0.02688599 C17.20918732 0.03250472 21.05067208 0.04506041 24.89219666 0.05775452 C27.48920102 0.0627671 30.0862063 0.06733043 32.68321228 0.07142639 C39.06539597 0.08248025 45.44753659 0.09975744 51.82969666 0.12025452 C51.82969666 4.08025452 51.82969666 8.04025452 51.82969666 12.12025452 C45.22969666 12.12025452 38.62969666 12.12025452 31.82969666 12.12025452 C31.82969666 29.94025452 31.82969666 47.76025452 31.82969666 66.12025452 C26.87969666 66.12025452 21.92969666 66.12025452 16.82969666 66.12025452 C16.82969666 48.30025452 16.82969666 30.48025452 16.82969666 12.12025452 C10.22969666 12.12025452 3.62969666 12.12025452 -3.17030334 12.12025452 C-3.26795959 3.62416077 -3.26795959 3.62416077 -3.17030334 1.12025452 C-2.17030334 0.12025452 -2.17030334 0.12025452 0 0 Z " fill="#CBCFD6" transform="translate(435.17030334472656,70.87974548339844)"/>
<path d="M0 0 C4.62 0 9.24 0 14 0 C14 21.78 14 43.56 14 66 C9.05 66 4.1 66 -1 66 C-1.02255381 57.54232269 -1.0409167 49.08466859 -1.05181217 40.62696934 C-1.05704031 36.70011342 -1.06413669 32.77327906 -1.07543945 28.84643555 C-1.0862708 25.05985743 -1.09227736 21.2733001 -1.09487724 17.48670769 C-1.09673105 16.03895681 -1.10035081 14.59120712 -1.10573006 13.14346504 C-1.11294367 11.12242865 -1.11340808 9.10137152 -1.11352539 7.08032227 C-1.115746 5.92782486 -1.11796661 4.77532745 -1.12025452 3.58790588 C-1 1 -1 1 0 0 Z " fill="#B8BCC6" transform="translate(542,71)"/>
<path d="M0 0 C0.33 0 0.66 0 1 0 C1.02326866 9.45841977 1.04098865 18.91682955 1.05181217 28.3752718 C1.05700942 32.76817658 1.06404906 37.16106164 1.07543945 41.55395508 C1.08638138 45.80093261 1.09230057 50.04789127 1.09487724 54.29488182 C1.09671126 55.90741459 1.10029222 57.51994644 1.10573006 59.13247108 C1.16241394 76.65350674 1.10483705 92.68293887 -12 106 C-24.22461419 116.4987863 -37.42950246 117.71605901 -52.7421875 117.3046875 C-54.52284407 117.27537678 -56.30353773 117.24824655 -58.08425903 117.22317505 C-62.73455043 117.15136627 -67.3836147 117.04785225 -72.03314209 116.93804932 C-75.8270005 116.85387896 -79.62106938 116.79254382 -83.41537285 116.73234367 C-87.96195207 116.65981733 -92.50833312 116.57756286 -97.0546875 116.4921875 C-97.91324215 116.47620388 -98.7717968 116.46022026 -99.65636826 116.44375229 C-102.09641462 116.39586186 -104.53622083 116.34147181 -106.97607422 116.28466797 C-107.68789352 116.27105728 -108.39971283 116.25744659 -109.13310242 116.24342346 C-113.50696707 116.13274288 -117.68992484 115.6931301 -122 115 C-122 114.67 -122 114.34 -122 114 C-120.91671921 113.99191315 -119.83343842 113.98382629 -118.71733093 113.97549438 C-108.51987146 113.89808695 -98.32254631 113.81036141 -88.12526226 113.71247292 C-82.88244472 113.66247794 -77.63964764 113.61614819 -72.39672852 113.578125 C-67.33920284 113.54131264 -62.28184708 113.49496376 -57.22446632 113.44193649 C-55.29275295 113.42337099 -53.36100313 113.40827104 -51.42923546 113.39665604 C-48.72828053 113.37983045 -46.02771657 113.35080453 -43.3269043 113.31884766 C-42.12281166 113.31560738 -42.12281166 113.31560738 -40.89439392 113.31230164 C-37.07532613 113.2543871 -35.25340934 113.16893956 -32 111 C-31.67 110.34 -31.34 109.68 -31 109 C-30.2575 109.020625 -29.515 109.04125 -28.75 109.0625 C-26.25952352 109.00589826 -24.3724279 108.68876939 -22 108 C-20.66666667 107.66666667 -19.33333333 107.33333333 -18 107 C-16.98888907 103.95086772 -16.98888907 103.95086772 -18 101 C-17.01 101 -16.02 101 -15 101 C-14.67 100.34 -14.34 99.68 -14 99 C-13.67 99.66 -13.34 100.32 -13 101 C-11.35 99.35 -9.7 97.7 -8 96 C-8.33 95.34 -8.66 94.68 -9 94 C-11.02463255 93.34786708 -11.02463255 93.34786708 -13 93 C-13 92.34 -13 91.68 -13 91 C-10.03 91 -7.06 91 -4 91 C-4.020625 90.195625 -4.04125 89.39125 -4.0625 88.5625 C-4 86 -4 86 -3 85 C-2.85386439 83.40889202 -2.7725957 81.81174101 -2.71875 80.21484375 C-2.68136719 79.20744141 -2.64398438 78.20003906 -2.60546875 77.16210938 C-2.57066406 76.09798828 -2.53585938 75.03386719 -2.5 73.9375 C-2.26584164 67.16858882 -1.97126359 60.41745522 -1.50390625 53.66015625 C-0.78805073 42.95256514 -0.64671061 32.22695387 -0.4375 21.5 C-0.39418417 19.40494161 -0.35056637 17.30988944 -0.30664062 15.21484375 C-0.20095346 10.14329399 -0.09932569 5.07167817 0 0 Z " fill="#894DE3" transform="translate(179,69)"/>
<path d="M0 0 C0.99 0 1.98 0 3 0 C3.495 1.485 3.495 1.485 4 3 C2 6 2 6 0 6.75 C-2 7 -2 7 -4 6 C-6.09821215 6.39938767 -6.09821215 6.39938767 -8 7 C-8.66 6.01 -9.32 5.02 -10 4 C-12.10081297 3.56036446 -12.10081297 3.56036446 -14.4375 3.6875 C-15.61119141 3.69330078 -15.61119141 3.69330078 -16.80859375 3.69921875 C-19.28860104 3.87721881 -19.28860104 3.87721881 -22 6 C-20.16715557 7.12516085 -20.16715557 7.12516085 -18 8 C-17.01 7.67 -16.02 7.34 -15 7 C-14.01 7.33 -13.02 7.66 -12 8 C-11.81796937 14.37107196 -13.18103539 19.25364907 -16 25 C-19 27 -19 27 -22 27 C-22 27.66 -22 28.32 -22 29 C-23.65 29.33 -25.3 29.66 -27 30 C-27.33 28.35 -27.66 26.7 -28 25 C-29.65 24.67 -31.3 24.34 -33 24 C-33 26.31 -33 28.62 -33 31 C-32.4225 31.144375 -31.845 31.28875 -31.25 31.4375 C-29.92138549 31.76965363 -28.59624177 32.11745694 -27.28125 32.5 C-24.27847167 33.1581432 -21.31531634 33.34792786 -18.25 33.5625 C-17.07953125 33.64628906 -15.9090625 33.73007813 -14.703125 33.81640625 C-13.36507812 33.90728516 -13.36507812 33.90728516 -12 34 C-12 34.33 -12 34.66 -12 35 C-19.59 35 -27.18 35 -35 35 C-35 30.71 -35 26.42 -35 22 C-28.84765625 21.90234375 -28.84765625 21.90234375 -27 22 C-26.67 22.33 -26.34 22.66 -26 23 C-22.54187831 23.33338596 -22.54187831 23.33338596 -19 23 C-16.8612739 19.79191085 -16.52269038 18.72301503 -17 15 C-20.92981409 12.38012394 -22.42024419 13.24922036 -27 14 C-29.67427612 14.08883085 -32.32319521 14.04696149 -35 14 C-35 10.04 -35 6.08 -35 2 C-34.01080566 2.01047363 -33.02161133 2.02094727 -32.00244141 2.03173828 C-28.33857836 2.06789019 -24.67473114 2.09088282 -21.01074219 2.10986328 C-19.42380117 2.11993188 -17.83687875 2.13358767 -16.25 2.15087891 C-13.97130753 2.17509001 -11.69285994 2.18647422 -9.4140625 2.1953125 C-8.34679428 2.21079636 -8.34679428 2.21079636 -7.25796509 2.22659302 C-5.50368335 2.22699422 -3.75003291 2.12202209 -2 2 C-1.34 1.34 -0.68 0.68 0 0 Z " fill="#6781F0" transform="translate(140,89)"/>
<path d="M0 0 C1.30066406 -0.00128906 2.60132813 -0.00257812 3.94140625 -0.00390625 C4.96258545 -0.00076416 4.96258545 -0.00076416 6.00439453 0.00244141 C8.08503515 0.0077901 10.16545989 0.0024957 12.24609375 -0.00390625 C14.19708984 -0.00197266 14.19708984 -0.00197266 16.1875 0 C17.39083984 0.00112793 18.59417969 0.00225586 19.83398438 0.00341797 C22.59375 0.1328125 22.59375 0.1328125 23.59375 1.1328125 C23.66601502 2.98568752 23.6775622 4.84115128 23.65625 6.6953125 C23.64722656 7.70722656 23.63820313 8.71914062 23.62890625 9.76171875 C23.61730469 10.54417969 23.60570312 11.32664062 23.59375 12.1328125 C19.33960377 12.15746872 15.08549502 12.17565149 10.83129883 12.18774414 C9.38304927 12.19278351 7.93480483 12.19961503 6.48657227 12.20825195 C4.40900412 12.22033497 2.33150303 12.22604461 0.25390625 12.23046875 C-0.99769287 12.23570557 -2.24929199 12.24094238 -3.53881836 12.24633789 C-6.40625 12.1328125 -6.40625 12.1328125 -7.40625 11.1328125 C-7.50448937 9.46852199 -7.53598631 7.79999319 -7.53125 6.1328125 C-7.53382813 5.2253125 -7.53640625 4.3178125 -7.5390625 3.3828125 C-7.26461784 -1.26660288 -3.9453557 0.00369811 0 0 Z " fill="#C1C5CE" transform="translate(502.40625,103.8671875)"/>
<path d="M0 0 C0.495 0.99 0.495 0.99 1 2 C9.58 2 18.16 2 27 2 C27 2.33 27 2.66 27 3 C26.31373535 3.01981934 25.6274707 3.03963867 24.92041016 3.06005859 C21.82154221 3.15510945 18.72336706 3.26486847 15.625 3.375 C14.54476562 3.4059375 13.46453125 3.436875 12.3515625 3.46875 C11.3203125 3.50742187 10.2890625 3.54609375 9.2265625 3.5859375 C7.79691162 3.63306885 7.79691162 3.63306885 6.33837891 3.68115234 C3.81104824 3.78555796 3.81104824 3.78555796 2 6 C1.67 6.66 1.34 7.32 1 8 C0.4225 7.484375 -0.155 6.96875 -0.75 6.4375 C-2.83046099 4.78246864 -2.83046099 4.78246864 -4.9375 5.1875 C-5.618125 5.455625 -6.29875 5.72375 -7 6 C-8.299375 6.309375 -8.299375 6.309375 -9.625 6.625 C-12.40036582 7.89187638 -12.40036582 7.89187638 -13.3125 11.625 C-13.539375 12.73875 -13.76625 13.8525 -14 15 C-16.64 15.66 -19.28 16.32 -22 17 C-21.67 18.65 -21.34 20.3 -21 22 C-22.98 22 -24.96 22 -27 22 C-28.96385405 27.62971494 -30.04393103 33.12700488 -31 39 C-30.34 39 -29.68 39 -29 39 C-29 41.31 -29 43.62 -29 46 C-29.33 44.68 -29.66 43.36 -30 42 C-32.03435531 45.72965139 -33 47.66905042 -33 52 C-32.34 52.66 -31.68 53.32 -31 54 C-31.32669678 54.524729 -31.65339355 55.04945801 -31.98999023 55.59008789 C-33.29841954 58.71203754 -33.20914951 61.17712148 -33.16015625 64.55859375 C-33.14919922 65.83154297 -33.13824219 67.10449219 -33.12695312 68.41601562 C-33.10618403 69.75652169 -33.08469289 71.09701675 -33.0625 72.4375 C-33.02594034 75.06121187 -32.99787308 77.68471637 -32.97265625 80.30859375 C-32.95468994 81.47189209 -32.93672363 82.63519043 -32.91821289 83.83374023 C-32.99218969 86.69763626 -33.33490131 89.22131476 -34 92 C-34.33 92 -34.66 92 -35 92 C-35.11675836 84.66243877 -35.20514657 77.32508352 -35.25906086 69.9867754 C-35.28496049 66.57784108 -35.31998757 63.16955036 -35.37719727 59.76098633 C-35.44280884 55.82641787 -35.46634267 51.89209381 -35.48828125 47.95703125 C-35.51408768 46.75544876 -35.5398941 45.55386627 -35.56648254 44.31587219 C-35.57083767 30.93616489 -31.03542808 20.75395119 -22 11 C-21.36835938 10.30261719 -20.73671875 9.60523438 -20.0859375 8.88671875 C-14.72016951 4.03341175 -6.94072604 1.69662192 0 0 Z " fill="#29CEEF" transform="translate(53,24)"/>
<path d="M0 0 C4.95 0 9.9 0 15 0 C13.90185737 7.02811284 12.09134447 11.90865553 7 17 C4.7161963 18.62475013 2.5409432 19.78034726 0 21 C-2 19 -2 19 -3 17 C-3.66 17.33 -4.32 17.66 -5 18 C-4.67 17.2575 -4.34 16.515 -4 15.75 C-2.77217129 12.86116688 -2.77217129 12.86116688 -3 9 C-2.36873273 5.73845243 -1.26756913 3.16892283 0 0 Z " fill="#E3E5EB" transform="translate(336,114)"/>
<path d="M0 0 C0.66 0.66 1.32 1.32 2 2 C1.27554688 2.09796875 0.55109375 2.1959375 -0.1953125 2.296875 C-8.2983253 3.52376468 -8.2983253 3.52376468 -15 8 C-16.1022547 10.25858227 -17.02015228 12.55138831 -17.9375 14.890625 C-19.52947556 18.05116471 -22.00176854 19.25103165 -25 21 C-28.24696025 24.42734693 -30.05497554 27.36078903 -31 32 C-30.7401858 34.80021971 -30.37799501 37.5451928 -29.8984375 40.31640625 C-30.03608798 43.95355554 -31.73718264 45.21564109 -34 48 C-34.90020454 51.33102867 -34.90020454 51.33102867 -35.25 54.8125 C-35.39953125 55.97394531 -35.5490625 57.13539062 -35.703125 58.33203125 C-35.80109375 59.21246094 -35.8990625 60.09289062 -36 61 C-38.5654594 58.4345406 -38.54046087 56.52313332 -39 53 C-39.66 53 -40.32 53 -41 53 C-41 52.01 -41 51.02 -41 50 C-39.35 50 -37.7 50 -36 50 C-36 48.68 -36 47.36 -36 46 C-35.34 46 -34.68 46 -34 46 C-34.20109375 45.05769531 -34.4021875 44.11539063 -34.609375 43.14453125 C-35.31832292 38.15298481 -34.27319307 33.57253637 -33.25 28.6875 C-33.07984375 27.78193359 -32.9096875 26.87636719 -32.734375 25.94335938 C-32.5590625 25.07904297 -32.38375 24.21472656 -32.203125 23.32421875 C-32.04489258 22.54135498 -31.88666016 21.75849121 -31.72363281 20.9519043 C-31 19 -31 19 -28 17 C-25.8125 17.375 -25.8125 17.375 -24 18 C-24 17.34 -24 16.68 -24 16 C-22.68 15.67 -21.36 15.34 -20 15 C-20.33 13.02 -20.66 11.04 -21 9 C-20.01 9 -19.02 9 -18 9 C-18.33 6.36 -18.66 3.72 -19 1 C-16.69 1.66 -14.38 2.32 -12 3 C-11.67 2.34 -11.34 1.68 -11 1 C-7.33288186 -0.04774804 -3.79781076 -0.25318738 0 0 Z " fill="#46B2F3" transform="translate(91,55)"/>
<path d="M0 0 C7.59 0 15.18 0 23 0 C25.29844563 4.59689127 24.80160928 6.10127662 24 11 C24.495 12.485 24.495 12.485 25 14 C24.34 14 23.68 14 23 14 C21.28533964 10.57067929 21.94595944 6.78283935 22 3 C17.05 2.67 12.1 2.34 7 2 C7 2.66 7 3.32 7 4 C6.34 4 5.68 4 5 4 C4.34 3.34 3.68 2.68 3 2 C2.34 2.33 1.68 2.66 1 3 C1.1546875 4.0828125 1.1546875 4.0828125 1.3125 5.1875 C0.86961943 9.17342511 -1.05328644 10.38814025 -4 13 C-5.36984198 14.29579647 -6.7151049 15.61992749 -8 17 C-8 17.66 -8 18.32 -8 19 C-9.0725 18.814375 -10.145 18.62875 -11.25 18.4375 C-14.6182493 18.04453758 -15.9155123 18.13248784 -19 19 C-24.7772512 19.55550492 -29.34303805 18.46863373 -34 15 C-35.23046875 12.859375 -35.23046875 12.859375 -36 11 C-35.46890625 11.27714844 -34.9378125 11.55429688 -34.390625 11.83984375 C-33.68421875 12.20207031 -32.9778125 12.56429687 -32.25 12.9375 C-31.55390625 13.29714844 -30.8578125 13.65679687 -30.140625 14.02734375 C-24.97697017 16.37360297 -19.32831328 17.07266082 -13.87890625 15.31640625 C-6.50113677 11.95526741 -3.6319141 7.2638282 0 0 Z " fill="#8B7DEE" transform="translate(105,132)"/>
<path d="M0 0 C-1.98 0.99 -3.96 1.98 -6 3 C-6 3.99 -6 4.98 -6 6 C-7.32 6.33 -8.64 6.66 -10 7 C-10.495 5.02 -10.495 5.02 -11 3 C-11.58119598 2.98969254 -12.16239197 2.97938507 -12.76119995 2.96876526 C-66.58424265 2.0095693 -66.58424265 2.0095693 -88 1 C-88 0.67 -88 0.34 -88 0 C-76.96926478 -0.15373756 -65.93847037 -0.30191918 -54.90756512 -0.4429636 C-49.78574722 -0.50862824 -44.66396981 -0.57622282 -39.54223633 -0.64819336 C-34.6015764 -0.71754902 -29.66087449 -0.78188041 -24.72010231 -0.84269524 C-22.83299182 -0.86681276 -20.94590376 -0.89275557 -19.05884361 -0.92053413 C-16.42036828 -0.95906535 -13.78188852 -0.99116732 -11.14331055 -1.02172852 C-10.3592836 -1.03467453 -9.57525665 -1.04762054 -8.76747131 -1.06095886 C-5.56218676 -1.09232647 -3.06568733 -1.02189578 0 0 Z " fill="#4EAAF0" transform="translate(142,25)"/>
<path d="M0 0 C0.33 0.66 0.66 1.32 1 2 C2.32 1.67 3.64 1.34 5 1 C12.28078024 17.92958125 12.28078024 17.92958125 10 25 C11.65 25 13.3 25 15 25 C15 19.72 15 14.44 15 9 C15.66 9 16.32 9 17 9 C17.33 8.34 17.66 7.68 18 7 C19.1875 4.875 19.1875 4.875 21 3 C24.1875 2.75 24.1875 2.75 27 3 C26.2575 3.721875 25.515 4.44375 24.75 5.1875 C19.96219405 10.08411972 17.53432512 12.77545337 17.25 19.8125 C17.19328125 20.97394531 17.1365625 22.13539062 17.078125 23.33203125 C17.05234375 24.21246094 17.0265625 25.09289062 17 26 C14.03 26 11.06 26 8 26 C7.96132812 24.71416016 7.96132812 24.71416016 7.921875 23.40234375 C7.48668313 13.98281408 7.48668313 13.98281408 3 6 C0.72282753 4.36786351 -1.45692743 3.22263105 -4 2 C-2.68 1.34 -1.36 0.68 0 0 Z " fill="#6D9BEB" transform="translate(97,56)"/>
<path d="M0 0 C0.66 0 1.32 0 2 0 C1.855625 0.70125 1.71125 1.4025 1.5625 2.125 C0.98521625 5.07556141 0.48304859 8.03270151 0 11 C0.66 11 1.32 11 2 11 C2 13.31 2 15.62 2 18 C1.67 16.68 1.34 15.36 1 14 C-1.03435531 17.72965139 -2 19.66905042 -2 24 C-1.34 24.66 -0.68 25.32 0 26 C-0.32669678 26.524729 -0.65339355 27.04945801 -0.98999023 27.59008789 C-2.29841954 30.71203754 -2.20914951 33.17712148 -2.16015625 36.55859375 C-2.14919922 37.83154297 -2.13824219 39.10449219 -2.12695312 40.41601562 C-2.10618403 41.75652169 -2.08469289 43.09701675 -2.0625 44.4375 C-2.02594034 47.06121187 -1.99787308 49.68471637 -1.97265625 52.30859375 C-1.95468994 53.47189209 -1.93672363 54.63519043 -1.91821289 55.83374023 C-1.99218969 58.69763626 -2.33490131 61.22131476 -3 64 C-3.33 64 -3.66 64 -4 64 C-4 44.86 -4 25.72 -4 6 C-3.34 6 -2.68 6 -2 6 C-1.34 4.02 -0.68 2.04 0 0 Z " fill="#24CCF6" transform="translate(22,52)"/>
<path d="M0 0 C0.99 0.33 1.98 0.66 3 1 C4.21730382 7.32997988 4.21730382 7.32997988 3.25 10.3125 C2 12 2 12 -1 14 C-1.99 14 -2.98 14 -4 14 C-4 14.66 -4 15.32 -4 16 C-5.65 16.33 -7.3 16.66 -9 17 C-9.33 15.35 -9.66 13.7 -10 12 C-11.65 11.67 -13.3 11.34 -15 11 C-15 13.31 -15 15.62 -15 18 C-14.4225 18.144375 -13.845 18.28875 -13.25 18.4375 C-11.92138549 18.76965363 -10.59624177 19.11745694 -9.28125 19.5 C-6.27847167 20.1581432 -3.31531634 20.34792786 -0.25 20.5625 C0.92046875 20.64628906 2.0909375 20.73007813 3.296875 20.81640625 C4.63492188 20.90728516 4.63492188 20.90728516 6 21 C6 21.33 6 21.66 6 22 C-1.59 22 -9.18 22 -17 22 C-17 17.71 -17 13.42 -17 9 C-10.84765625 8.90234375 -10.84765625 8.90234375 -9 9 C-8.67 9.33 -8.34 9.66 -8 10 C-4.54187831 10.33338596 -4.54187831 10.33338596 -1 10 C1.16139576 6.75790636 1.28794018 5.74322232 1 2 C0.67 1.34 0.34 0.68 0 0 Z " fill="#8080EE" transform="translate(122,102)"/>
<path d="M0 0 C1.1875 1.625 1.1875 1.625 2 4 C-0.37898036 10.12450076 -3.35443427 12.16533988 -9.16210938 14.84863281 C-16.7828576 17.51025759 -25.30961679 16.60484179 -33.25 16.375 C-35.07417437 16.34484032 -36.89839718 16.31747519 -38.72265625 16.29296875 C-43.14965432 16.22749884 -47.57427961 16.12431799 -52 16 C-52 15.67 -52 15.34 -52 15 C-51.04633545 14.98018066 -50.0926709 14.96036133 -49.11010742 14.93994141 C-45.57077701 14.86384986 -42.03185583 14.77513839 -38.49291992 14.68261719 C-36.96142661 14.64434202 -35.42984385 14.60948651 -33.89819336 14.578125 C-31.6961267 14.53244193 -29.49467504 14.47445463 -27.29296875 14.4140625 C-26.60849167 14.40251129 -25.92401459 14.39096008 -25.21879578 14.37905884 C-21.61539163 14.26726256 -20.0840817 14.05605447 -17 12 C-16.67 11.34 -16.34 10.68 -16 10 C-14.88625 10.0309375 -14.88625 10.0309375 -13.75 10.0625 C-11.25952352 10.00589826 -9.3724279 9.68876939 -7 9 C-5.66666667 8.66666667 -4.33333333 8.33333333 -3 8 C-1.98888907 4.95086772 -1.98888907 4.95086772 -3 2 C-2.01 2 -1.02 2 0 2 C0 1.34 0 0.68 0 0 Z " fill="#9935EB" transform="translate(164,168)"/>
<path d="M0 0 C0.66 0 1.32 0 2 0 C2.30487805 7.92682927 2.30487805 7.92682927 0 11 C-0.825 11.474375 -1.65 11.94875 -2.5 12.4375 C-5.47826266 14.29891416 -6.01825158 15.69775531 -7 19 C-8.98 18.34 -10.96 17.68 -13 17 C-13.32644414 12.83783725 -13.40650982 10.63686538 -11.125 7.0625 C-9 5 -9 5 -7 5 C-6.67 5.66 -6.34 6.32 -6 7 C-4.35 7 -2.7 7 -1 7 C-0.25042843 3.52852158 -0.25042843 3.52852158 0 0 Z " fill="#46A0FB" transform="translate(81,76)"/>
<path d="M0 0 C0.99 0.66 1.98 1.32 3 2 C3 2.66 3 3.32 3 4 C3.99 4 4.98 4 6 4 C6.12375 4.66 6.2475 5.32 6.375 6 C6.72232558 7.66716278 7.09192675 9.33159291 7.546875 10.97265625 C7.73765625 11.66230469 7.9284375 12.35195312 8.125 13.0625 C8.31320313 13.71347656 8.50140625 14.36445313 8.6953125 15.03515625 C9.04611761 17.29739946 8.68486985 18.83446083 8 21 C8.66 21.33 9.32 21.66 10 22 C8.85981998 25.42054006 8.07541482 26.2426201 5 28 C2.9375 27.75 2.9375 27.75 1 27 C0.01 26.67 -0.98 26.34 -2 26 C-2 25.34 -2 24.68 -2 24 C-2.66 24 -3.32 24 -4 24 C-4 23.34 -4 22.68 -4 22 C-2.906875 22.0825 -1.81375 22.165 -0.6875 22.25 C2.96433583 22.36773605 2.96433583 22.36773605 5 20.3125 C6.33200593 17.2322363 6.06626833 16.19880499 5 13 C3.28359566 8.76869018 1.53778127 4.80667191 -1 1 C-0.67 0.67 -0.34 0.34 0 0 Z " fill="#8F4AF7" transform="translate(134,124)"/>
<path d="M0 0 C0.11668214 3.87474457 0.18741231 7.74903396 0.25 11.625 C0.30027344 13.26662109 0.30027344 13.26662109 0.3515625 14.94140625 C0.4465587 22.77859292 -0.47942097 26.08824552 -5.6875 31.875 C-9.33425226 33.64909569 -13.01628016 33.22982999 -17 33 C-13.5647952 30.70986347 -12.014669 30.82157027 -8 31 C-7.87625 30.071875 -7.87625 30.071875 -7.75 29.125 C-7 27 -7 27 -4.9375 25.75 C-4.298125 25.5025 -3.65875 25.255 -3 25 C-3 24.34 -3 23.68 -3 23 C-3.66 22.34 -4.32 21.68 -5 21 C-4.01 21 -3.02 21 -2 21 C-2 15.39 -2 9.78 -2 4 C-2.99 4.495 -2.99 4.495 -4 5 C-5.99960012 5.039992 -8.00047242 5.04346799 -10 5 C-9.443125 4.731875 -8.88625 4.46375 -8.3125 4.1875 C-6.6114292 3.31397716 -4.9488699 2.36443296 -3.3125 1.375 C-1 0 -1 0 0 0 Z " fill="#7784E7" transform="translate(97,107)"/>
<path d="M0 0 C3.91851711 0.64121189 5.06308226 1.45749219 7.4375 4.5625 C9.23038531 8.14827062 8.66501627 12.30129529 8.6875 16.25 C8.708125 17.13623047 8.72875 18.02246094 8.75 18.93554688 C8.78348631 24.59054685 8.22205382 28.59844728 5.4375 33.5625 C4.4475 34.2225 3.4575 34.8825 2.4375 35.5625 C2.4375 34.2425 2.4375 32.9225 2.4375 31.5625 C3.0975 31.5625 3.7575 31.5625 4.4375 31.5625 C5.32623597 28.46299377 5.62293782 25.57745633 5.75390625 22.359375 C5.79580078 21.3796875 5.83769531 20.4 5.88085938 19.390625 C5.92017578 18.37484375 5.95949219 17.3590625 6 16.3125 C6.04318359 15.28125 6.08636719 14.25 6.13085938 13.1875 C6.23675682 10.6459613 6.33883443 8.10432804 6.4375 5.5625 C5.7775 5.2325 5.1175 4.9025 4.4375 4.5625 C3.4475 4.8925 2.4575 5.2225 1.4375 5.5625 C1.4375 4.5725 1.4375 3.5825 1.4375 2.5625 C-1.47880113 2.50500443 -1.47880113 2.50500443 -4.5625 3.5625 C-6.0551041 5.83694434 -6.70492011 7.94211699 -7.5625 10.5625 C-7.8925 10.5625 -8.2225 10.5625 -8.5625 10.5625 C-9.08068998 6.93517012 -8.70913138 5.76245189 -6.5 2.75 C-3.5625 0.5625 -3.5625 0.5625 0 0 Z " fill="#66A3E9" transform="translate(88.5625,65.4375)"/>
<path d="M0 0 C0.66 0 1.32 0 2 0 C1.77183594 0.59425781 1.54367188 1.18851562 1.30859375 1.80078125 C-0.77509854 7.80891642 -1.1256066 12.20127387 0.06640625 18.45703125 C-0.02592512 21.99277961 -1.80729542 23.29064703 -4 26 C-4.90020454 29.33102867 -4.90020454 29.33102867 -5.25 32.8125 C-5.39953125 33.97394531 -5.5490625 35.13539062 -5.703125 36.33203125 C-5.80109375 37.21246094 -5.8990625 38.09289062 -6 39 C-8.5654594 36.4345406 -8.54046087 34.52313332 -9 31 C-9.66 31 -10.32 31 -11 31 C-11 30.01 -11 29.02 -11 28 C-9.35 28 -7.7 28 -6 28 C-6 26.68 -6 25.36 -6 24 C-5.34 24 -4.68 24 -4 24 C-4.20367187 23.00613281 -4.40734375 22.01226562 -4.6171875 20.98828125 C-5.21418811 16.79978404 -4.32842885 13.19228806 -3.125 9.1875 C-2.93808594 8.52041016 -2.75117187 7.85332031 -2.55859375 7.16601562 C-1.85171327 4.68190726 -1.15748602 2.31497204 0 0 Z " fill="#53A9EF" transform="translate(61,77)"/>
<path d="M0 0 C4 2 4 2 5.8125 3 C8.77774366 4.35553996 11.86730583 5.11338844 15 6 C16 7 16 7 16.125 10.75 C16.09056708 13.9522611 15.7354728 16.87424059 15 20 C15 20.66 15 21.32 15 22 C12.625 21.3125 12.625 21.3125 10 20 C8.6875 17.375 8.6875 17.375 8 15 C9.98 14.34 11.96 13.68 14 13 C13.67 11.35 13.34 9.7 13 8 C11.4221875 7.5978125 11.4221875 7.5978125 9.8125 7.1875 C6.38992227 6.1214512 3.87231696 5.11199777 1 3 C0.67 2.01 0.34 1.02 0 0 Z " fill="#6F85EE" transform="translate(65,117)"/>
<path d="M0 0 C0.33 0.99 0.66 1.98 1 3 C0.01 4.485 0.01 4.485 -1 6 C-1.16713569 8.62531524 -1.16713569 8.62531524 -1 11 C-0.34 11.33 0.32 11.66 1 12 C0.67 12.66 0.34 13.32 0 14 C-2.5625 14.625 -2.5625 14.625 -5 15 C-5 15.66 -5 16.32 -5 17 C-5.66 17 -6.32 17 -7 17 C-7.56862745 7.33333333 -7.56862745 7.33333333 -4 3 C-1.8125 1.1875 -1.8125 1.1875 0 0 Z " fill="#5697F4" transform="translate(71,99)"/>
<path d="M0 0 C0.33 0.66 0.66 1.32 1 2 C9.58 2 18.16 2 27 2 C27 2.33 27 2.66 27 3 C26.31373535 3.01981934 25.6274707 3.03963867 24.92041016 3.06005859 C21.82154221 3.15510945 18.72336706 3.26486847 15.625 3.375 C14.54476562 3.4059375 13.46453125 3.436875 12.3515625 3.46875 C11.3203125 3.50742187 10.2890625 3.54609375 9.2265625 3.5859375 C7.79691162 3.63306885 7.79691162 3.63306885 6.33837891 3.68115234 C3.81104824 3.78555796 3.81104824 3.78555796 2 6 C1.67 6.66 1.34 7.32 1 8 C0.17242187 7.24783203 0.17242187 7.24783203 -0.671875 6.48046875 C-3.56823776 4.63865418 -4.90169799 4.82787734 -8.25 5.3125 C-9.14203125 5.43238281 -10.0340625 5.55226563 -10.953125 5.67578125 C-11.62859375 5.78277344 -12.3040625 5.88976562 -13 6 C-12 4 -12 4 -9.27734375 2.9296875 C-8.17519531 2.58164062 -7.07304688 2.23359375 -5.9375 1.875 C-4.83277344 1.52179687 -3.72804688 1.16859375 -2.58984375 0.8046875 C-1.73519531 0.53914063 -0.88054688 0.27359375 0 0 Z " fill="#32C7F3" transform="translate(53,24)"/>
<path d="M0 0 C4.68520915 1.21815438 8.70543612 2.69559987 13 5 C13 4.34 13 3.68 13 3 C13.66 3 14.32 3 15 3 C15.17273437 3.63421875 15.34546875 4.2684375 15.5234375 4.921875 C16.93168189 7.38710015 16.93168189 7.38710015 20.4765625 7.828125 C21.85734582 7.98744615 23.2404743 8.12738518 24.625 8.25 C25.33140625 8.32734375 26.0378125 8.4046875 26.765625 8.484375 C28.5087053 8.67281611 30.25420924 8.83858869 32 9 C32 9.33 32 9.66 32 10 C18.89676657 12.02429911 10.64070869 8.48303316 0 1 C0 0.67 0 0.34 0 0 Z " fill="#6F71E8" transform="translate(32,175)"/>
<path d="M0 0 C0.99 0.495 0.99 0.495 2 1 C2 2.32 2 3.64 2 5 C2.66 5.66 3.32 6.32 4 7 C3.67330322 7.524729 3.34660645 8.04945801 3.01000977 8.59008789 C1.70158046 11.71203754 1.79085049 14.17712148 1.83984375 17.55859375 C1.85080078 18.83154297 1.86175781 20.10449219 1.87304688 21.41601562 C1.89381597 22.75652169 1.91530711 24.09701675 1.9375 25.4375 C1.97405966 28.06121187 2.00212692 30.68471637 2.02734375 33.30859375 C2.04531006 34.47189209 2.06327637 35.63519043 2.08178711 36.83374023 C2.00781031 39.69763626 1.66509869 42.22131476 1 45 C0.67 45 0.34 45 0 45 C0 30.15 0 15.3 0 0 Z " fill="#43A6E9" transform="translate(18,71)"/>
<path d="M0 0 C0.53109375 0.27714844 1.0621875 0.55429688 1.609375 0.83984375 C2.31578125 1.20207031 3.0221875 1.56429687 3.75 1.9375 C4.79414062 2.47697266 4.79414062 2.47697266 5.859375 3.02734375 C10.87026401 5.30418931 16.70031537 6.18500579 21.96875 4.29296875 C22.88140625 3.86951172 22.88140625 3.86951172 23.8125 3.4375 C27 2 27 2 30 3 C29.34 4.65 28.68 6.3 28 8 C26.9275 7.814375 25.855 7.62875 24.75 7.4375 C21.3817507 7.04453758 20.0844877 7.13248784 17 8 C11.2227488 8.55550492 6.65696195 7.46863373 2 4 C0.76953125 1.859375 0.76953125 1.859375 0 0 Z " fill="#7379E9" transform="translate(69,143)"/>
<path d="M0 0 C0.33 0.66 0.66 1.32 1 2 C2.32 1.67 3.64 1.34 5 1 C12.28078024 17.92958125 12.28078024 17.92958125 10 25 C9.67 25 9.34 25 9 25 C8.85304688 23.82244141 8.85304688 23.82244141 8.703125 22.62109375 C7.79054629 16.20944158 6.99186218 11.17863202 3 6 C0.72588845 4.36166157 -1.4559786 3.22308721 -4 2 C-2.68 1.34 -1.36 0.68 0 0 Z " fill="#5C9AEC" transform="translate(97,56)"/>
<path d="M0 0 C2.97619417 2.97619417 3.81809239 6.57543889 5.1875 10.5 C5.47302734 11.28503906 5.75855469 12.07007812 6.05273438 12.87890625 C6.31763672 13.63042969 6.58253906 14.38195312 6.85546875 15.15625 C7.09934326 15.84525391 7.34321777 16.53425781 7.59448242 17.24414062 C8 19 8 19 7 21 C6.67386719 20.52949219 6.34773438 20.05898437 6.01171875 19.57421875 C5.57472656 18.95160156 5.13773437 18.32898438 4.6875 17.6875 C4.25824219 17.07261719 3.82898438 16.45773438 3.38671875 15.82421875 C2.06068265 13.9576064 2.06068265 13.9576064 0.33203125 12.51953125 C-1 11 -1 11 -1 7 C-0.68848712 4.66365343 -0.35840222 2.32961443 0 0 Z " fill="#EBEDF4" transform="translate(266,84)"/>
<path d="M0 0 C0.66 0.66 1.32 1.32 2 2 C0.96552734 1.9690625 0.96552734 1.9690625 -0.08984375 1.9375 C-7.43134913 2.09863043 -11.06030664 3.91937046 -16.3203125 8.9921875 C-18.20021176 10.99033877 -18.20021176 10.99033877 -19 14 C-19.66 14 -20.32 14 -21 14 C-19.40374246 7.76008416 -16.55057497 4.64370387 -11.1875 1.1875 C-7.10111157 -0.33488 -4.34379396 -0.36198283 0 0 Z " fill="#D6F4FE" transform="translate(93,57)"/>
<path d="M0 0 C1.65588254 0.22779337 3.30152831 0.53231439 4.9375 0.875 C6.28134766 1.14957031 6.28134766 1.14957031 7.65234375 1.4296875 C10 2 10 2 12 3 C12 3.66 12 4.32 12 5 C12.66 5.33 13.32 5.66 14 6 C13.01 6.66 12.02 7.32 11 8 C10.67 7.34 10.34 6.68 10 6 C7.36 6.33 4.72 6.66 2 7 C2 5.35 2 3.7 2 2 C1.01 1.67 0.02 1.34 -1 1 C-0.67 0.67 -0.34 0.34 0 0 Z " fill="#4F93F8" transform="translate(142,24)"/>
<path d="M0 0 C0.33 0 0.66 0 1 0 C1.20032453 3.60357025 1.38282186 7.20784601 1.5625 10.8125 C1.61857422 11.81732422 1.67464844 12.82214844 1.73242188 13.85742188 C2.06100134 20.66996944 1.80176585 27.22721044 1 34 C0.34 34 -0.32 34 -1 34 C-1.02943124 30.20835009 -1.0469419 26.41673021 -1.0625 22.625 C-1.07087891 21.56410156 -1.07925781 20.50320312 -1.08789062 19.41015625 C-1.1079424 12.87327796 -0.8058078 6.48825176 0 0 Z " fill="#973BED" transform="translate(178,120)"/>
<path d="M0 0 C2.4703294 0.58045991 4.15718396 0.3133402 6.64453125 -0.12109375 C10.8147376 -0.6569687 10.8147376 -0.6569687 13.70703125 0.75390625 C15.14453125 2.50390625 15.14453125 2.50390625 15.14453125 5.50390625 C14.48453125 5.50390625 13.82453125 5.50390625 13.14453125 5.50390625 C12.48453125 4.51390625 11.82453125 3.52390625 11.14453125 2.50390625 C8.70605674 2.61788169 6.26939951 2.74461599 3.83203125 2.87890625 C2.7965918 2.9253125 2.7965918 2.9253125 1.74023438 2.97265625 C-1.92537664 3.18515544 -3.73447667 3.42324486 -6.85546875 5.50390625 C-6.60546875 3.62890625 -6.60546875 3.62890625 -5.85546875 1.50390625 C-3.69644094 -0.05952768 -2.62238478 -0.70114288 0 0 Z " fill="#558EF9" transform="translate(118.85546875,56.49609375)"/>
<path d="M0 0 C0.66 0 1.32 0 2 0 C2.12375 1.2375 2.2475 2.475 2.375 3.75 C2.76171459 6.93338965 3.48143922 9.16535321 5 12 C5 13.32 5 14.64 5 16 C4.34 16 3.68 16 3 16 C3 19.3 3 22.6 3 26 C2.67 26 2.34 26 2 26 C1.93941406 24.86820313 1.87882812 23.73640625 1.81640625 22.5703125 C1.73200083 21.08852855 1.64735283 19.6067584 1.5625 18.125 C1.50352539 17.00544922 1.50352539 17.00544922 1.44335938 15.86328125 C1.28426376 11.80013136 1.28426376 11.80013136 0 8 C-0.13415472 5.3276379 -0.04318541 2.67749512 0 0 Z " fill="#4F9DF8" transform="translate(18,128)"/>
<path d="M0 0 C6.6 0 13.2 0 20 0 C21.23367942 3.70103827 20.5463808 6.17533441 20 10 C20.33 10.99 20.66 11.98 21 13 C20.34 13 19.68 13 19 13 C17.28533964 9.57067929 17.94595944 5.78283935 18 2 C13.05 1.67 8.1 1.34 3 1 C3 1.66 3 2.32 3 3 C2.34 3 1.68 3 1 3 C0.67 2.01 0.34 1.02 0 0 Z " fill="#7E63EC" transform="translate(109,133)"/>
<path d="M0 0 C1.485 0.99 1.485 0.99 3 2 C3 2.66 3 3.32 3 4 C3.99 4 4.98 4 6 4 C6.12375 4.66 6.2475 5.32 6.375 6 C6.92538067 8.84572464 6.92538067 8.84572464 7.58203125 10.97265625 C9.1796019 16.48685172 9.1796019 16.48685172 8.125 19.5 C7.75375 19.995 7.3825 20.49 7 21 C6.34 20.67 5.68 20.34 5 20 C5.309375 18.8553125 5.309375 18.8553125 5.625 17.6875 C6.33391203 14.78114056 6.33391203 14.78114056 4 12 C3.690625 10.865625 3.38125 9.73125 3.0625 8.5625 C2.09210918 5.30883667 1.20631166 3.50717234 -1 1 C-0.67 0.67 -0.34 0.34 0 0 Z " fill="#8B5AEF" transform="translate(134,124)"/>
<path d="M0 0 C0.09947301 3.4815554 -0.06451336 6.6322481 -1 10 C-1.99 10.495 -1.99 10.495 -3 11 C-3.12375 10.195625 -3.2475 9.39125 -3.375 8.5625 C-3.58125 7.716875 -3.7875 6.87125 -4 6 C-4.66 5.67 -5.32 5.34 -6 5 C-6 4.01 -6 3.02 -6 2 C-7.32 1.67 -8.64 1.34 -10 1 C-3.71428571 -1.42857143 -3.71428571 -1.42857143 0 0 Z " fill="#6A72FA" transform="translate(128,97)"/>
<path d="M0 0 C0.66 0 1.32 0 2 0 C2.36595174 6.46514745 2.36595174 6.46514745 0.78125 8.78125 C-1 10 -1 10 -3.26171875 9.85546875 C-4.06222656 9.63503906 -4.86273438 9.41460937 -5.6875 9.1875 C-6.49574219 8.97480469 -7.30398437 8.76210937 -8.13671875 8.54296875 C-8.75160156 8.36378906 -9.36648437 8.18460938 -10 8 C-10 8.99 -10 9.98 -10 11 C-10.66 11 -11.32 11 -12 11 C-11.67 12.98 -11.34 14.96 -11 17 C-11.66 17 -12.32 17 -13 17 C-13.32644414 12.83783725 -13.40650982 10.63686538 -11.125 7.0625 C-9 5 -9 5 -7 5 C-6.67 5.66 -6.34 6.32 -6 7 C-4.35 7 -2.7 7 -1 7 C-0.25042843 3.52852158 -0.25042843 3.52852158 0 0 Z " fill="#5CA2E8" transform="translate(81,76)"/>
<path d="M0 0 C1.32 0.66 2.64 1.32 4 2 C1.28938346 4.71061654 -0.47777149 4.98191433 -4.27807617 5.11352539 C-5.61638414 5.11336756 -6.95469882 5.10774745 -8.29296875 5.09765625 C-9.35201164 5.09553383 -9.35201164 5.09553383 -10.43244934 5.09336853 C-12.68417626 5.08777764 -14.93580321 5.07522688 -17.1875 5.0625 C-18.71549335 5.05748382 -20.24348827 5.05292112 -21.77148438 5.04882812 C-25.51436135 5.0378112 -29.25716373 5.02055287 -33 5 C-33 4.67 -33 4.34 -33 4 C-32.10692139 3.98541748 -31.21384277 3.97083496 -30.29370117 3.95581055 C-26.97782722 3.89472923 -23.66278101 3.82057522 -20.34741211 3.73754883 C-18.91295372 3.70430999 -17.47836487 3.67627465 -16.04370117 3.65356445 C-13.98039193 3.61999729 -11.91827697 3.56768587 -9.85546875 3.51171875 C-7.99378052 3.47244263 -7.99378052 3.47244263 -6.09448242 3.43237305 C-3.00121683 3.26711836 -3.00121683 3.26711836 -1.0715332 1.46801758 C-0.71792725 0.98357178 -0.36432129 0.49912598 0 0 Z " fill="#B9BDCA" transform="translate(605,132)"/>
<path d="M0 0 C0.86625 0.37125 0.86625 0.37125 1.75 0.75 C1.09 0.75 0.43 0.75 -0.25 0.75 C-1.86486826 4.41036806 -2.63661265 7.80679558 -3.25 11.75 C-3.58 12.41 -3.91 13.07 -4.25 13.75 C-4.58 12.1 -4.91 10.45 -5.25 8.75 C-5.91 8.75 -6.57 8.75 -7.25 8.75 C-6.89947365 5.59526281 -6.38480924 3.9266466 -4.4375 1.375 C-2.25 -0.25 -2.25 -0.25 0 0 Z " fill="#44A3FB" transform="translate(88.25,67.25)"/>
<path d="M0 0 C0.556875 0.226875 1.11375 0.45375 1.6875 0.6875 C0.90375 0.873125 0.12 1.05875 -0.6875 1.25 C-3.70626342 2.52711627 -3.70626342 2.52711627 -4.625 6.3125 C-4.851875 7.42625 -5.07875 8.54 -5.3125 9.6875 C-8.2825 9.1925 -8.2825 9.1925 -11.3125 8.6875 C-5.6425 -0.7625 -5.6425 -0.7625 0 0 Z " fill="#13DEFD" transform="translate(44.3125,29.3125)"/>
<path d="M0 0 C0.33 0.66 0.66 1.32 1 2 C0.07767578 2.27263672 0.07767578 2.27263672 -0.86328125 2.55078125 C-1.67152344 2.80214844 -2.47976562 3.05351563 -3.3125 3.3125 C-4.51326172 3.67794922 -4.51326172 3.67794922 -5.73828125 4.05078125 C-10.44734996 6.02712615 -11.90249741 9.50535159 -14 14 C-14.703125 12.2578125 -14.703125 12.2578125 -15 10 C-13.671875 7.9296875 -13.671875 7.9296875 -11.75 5.875 C-11.12609375 5.19179687 -10.5021875 4.50859375 -9.859375 3.8046875 C-6.5324455 0.57560887 -4.54780869 -0.2458275 0 0 Z " fill="#E9FAFF" transform="translate(129,59)"/>
<path d="M0 0 C0.66 0.66 1.32 1.32 2 2 C1.28714844 2.09796875 0.57429688 2.1959375 -0.16015625 2.296875 C-6.31847723 3.25833561 -10.80736161 4.53824107 -16 8 C-15.63327178 5.34122043 -15.20911362 4.20164528 -13.25 2.3125 C-9.06186463 -0.13057896 -4.78119589 -0.31874639 0 0 Z " fill="#4CACED" transform="translate(91,55)"/>
<path d="M0 0 C2 1 2 1 2.88671875 3.51171875 C3.15097656 4.55972656 3.41523438 5.60773437 3.6875 6.6875 C3.95949219 7.72261719 4.23148438 8.75773437 4.51171875 9.82421875 C5.02820001 13.18341286 4.73685806 15.70144747 4 19 C1.56181064 15.34271595 1.3283308 12.06712105 0.875 7.8125 C0.78863281 7.06291016 0.70226562 6.31332031 0.61328125 5.54101562 C0.40161618 3.69482588 0.19984536 1.84750656 0 0 Z " fill="#706EE6" transform="translate(175,48)"/>
<path d="M0 0 C2.6875 -0.375 2.6875 -0.375 6 0 C9.72194214 3.24680059 9.72194214 3.24680059 11 6 C10.8125 9.875 10.8125 9.875 10 13 C8.68 12.67 7.36 12.34 6 12 C6.33 11.67 6.66 11.34 7 11 C7.26293056 6.96839809 7.29404844 5.44107266 5 2 C2.43717258 1.27034634 2.43717258 1.27034634 0 1 C0 0.67 0 0.34 0 0 Z " fill="#698CEB" transform="translate(124,58)"/>
<path d="M0 0 C0.99 0.495 0.99 0.495 2 1 C2 2.32 2 3.64 2 5 C2.66 5.66 3.32 6.32 4 7 C3.67 7.515625 3.34 8.03125 3 8.5625 C1.67989123 11.78026512 1.86757895 14.5570528 2 18 C1.34 18.33 0.68 18.66 0 19 C0 12.73 0 6.46 0 0 Z " fill="#3ABBEB" transform="translate(18,71)"/>
<path d="M0 0 C0.66 0.33 1.32 0.66 2 1 C0 3 -2 5 -4 7 C-3.01 7.99 -2.02 8.98 -1 10 C-3.31 10.33 -5.62 10.66 -8 11 C-6.66629231 7.40924853 -5.19012918 4.15378602 -3 1 C-2.01 0.67 -1.02 0.34 0 0 Z " fill="#1ED6F5" transform="translate(38,30)"/>
<path d="M0 0 C1.76923828 0.01353516 1.76923828 0.01353516 3.57421875 0.02734375 C4.47785156 0.03894531 5.38148437 0.05054687 6.3125 0.0625 C5.3225 1.5475 5.3225 1.5475 4.3125 3.0625 C3.9825 3.7225 3.6525 4.3825 3.3125 5.0625 C2.48492187 4.31033203 2.48492187 4.31033203 1.640625 3.54296875 C-1.25573776 1.70115418 -2.58919799 1.89037734 -5.9375 2.375 C-6.82953125 2.49488281 -7.7215625 2.61476563 -8.640625 2.73828125 C-9.31609375 2.84527344 -9.9915625 2.95226562 -10.6875 3.0625 C-8.63221196 -1.04807609 -4.03316787 -0.03993236 0 0 Z " fill="#1ED2F4" transform="translate(50.6875,26.9375)"/>
<path d="M0 0 C0 3.58912412 -0.66436554 4.10857029 -3 6.6875 C-3.556875 7.31011719 -4.11375 7.93273437 -4.6875 8.57421875 C-5.120625 9.04472656 -5.55375 9.51523438 -6 10 C-6.66 9.67 -7.32 9.34 -8 9 C-6.06273348 4.41173718 -4.51135667 2.19471406 0 0 Z " fill="#992FE0" transform="translate(172,166)"/>
<path d="M0 0 C0.99 0 1.98 0 3 0 C3.33 0.99 3.66 1.98 4 3 C2 6 2 6 -0.125 6.6875 C-0.74375 6.790625 -1.3625 6.89375 -2 7 C-2.33 6.01 -2.66 5.02 -3 4 C-1.75 1.8125 -1.75 1.8125 0 0 Z " fill="#716FF5" transform="translate(140,89)"/>
<path d="M0 0 C0.66 0.99 1.32 1.98 2 3 C0 5 0 5 -3.125 5.125 C-4.07375 5.08375 -5.0225 5.0425 -6 5 C-6 4.34 -6 3.68 -6 3 C-6.66 3 -7.32 3 -8 3 C-8 2.34 -8 1.68 -8 1 C-6.865625 1.020625 -5.73125 1.04125 -4.5625 1.0625 C-1.18424326 1.41577477 -1.18424326 1.41577477 0 0 Z " fill="#8753F1" transform="translate(138,145)"/>
<path d="M0 0 C1.65 0 3.3 0 5 0 C5 3.63 5 7.26 5 11 C2.4345406 8.4345406 2.45953913 6.52313332 2 3 C1.34 3 0.68 3 0 3 C0 2.01 0 1.02 0 0 Z " fill="#4C9EF1" transform="translate(50,105)"/>
<path d="M0 0 C7.18781726 -0.60913706 7.18781726 -0.60913706 11 2.25 C13 5 13 5 13 9 C12.34 9 11.68 9 11 9 C10.71125 8.21625 10.4225 7.4325 10.125 6.625 C9.15087746 3.90328368 9.15087746 3.90328368 7 2 C3.41656024 1.83322718 3.41656024 1.83322718 0 2 C0 1.34 0 0.68 0 0 Z " fill="#717DE9" transform="translate(130,79)"/>
<path d="M0 0 C-0.66 1.65 -1.32 3.3 -2 5 C-5.46941546 4.54177532 -8.67395049 4.10868317 -12 3 C-10.5682384 2.30062798 -9.12932968 1.61587282 -7.6875 0.9375 C-6.48673828 0.36322266 -6.48673828 0.36322266 -5.26171875 -0.22265625 C-3 -1 -3 -1 0 0 Z " fill="#796EF0" transform="translate(99,146)"/>
<path d="M0 0 C3.33773709 3.64116773 3.97864902 7.28607242 5 12 C3.35 11.67 1.7 11.34 0 11 C0.66 10.67 1.32 10.34 2 10 C1.690625 9.071875 1.38125 8.14375 1.0625 7.1875 C0.375 5.125 -0.3125 3.0625 -1 1 C-0.67 0.67 -0.34 0.34 0 0 Z " fill="#DEE1EA" transform="translate(346,82)"/>
<path d="M0 0 C3.08089673 2.77280706 4.68775452 5.06326356 6 9 C5.01 9.33 4.02 9.66 3 10 C3 9.01 3 8.02 3 7 C2.34 7 1.68 7 1 7 C0.67 4.69 0.34 2.38 0 0 Z " fill="#6573EE" transform="translate(169,38)"/>
<path d="M0 0 C0.33 1.32 0.66 2.64 1 4 C-0.6875 5.5625 -0.6875 5.5625 -3 7 C-5.75 6.6875 -5.75 6.6875 -8 6 C-6 4 -6 4 -3.4375 3 C-0.85158559 2.25129886 -0.85158559 2.25129886 0 0 Z " fill="#E1F1FE" transform="translate(131,65)"/>
<path d="M0 0 C1.485 0.99 1.485 0.99 3 2 C3.3125 5 3.3125 5 3 8 C2.34 8.66 1.68 9.32 1 10 C-0.80411967 7.24075815 -1.0127245 6.11027897 -0.625 2.75 C-0.41875 1.8425 -0.2125 0.935 0 0 Z " fill="#EDEFF4" transform="translate(268,127)"/>
<path d="M0 0 C1.485 0.99 1.485 0.99 3 2 C3 2.66 3 3.32 3 4 C3.99 4 4.98 4 6 4 C5.67 6.64 5.34 9.28 5 12 C4.67 12 4.34 12 4 12 C3.731875 10.9275 3.46375 9.855 3.1875 8.75 C2.13772173 5.43491072 1.25387672 3.56122354 -1 1 C-0.67 0.67 -0.34 0.34 0 0 Z " fill="#8663EB" transform="translate(134,124)"/>
<path d="M0 0 C4 2 8 4 12 6 C12 6.33 12 6.66 12 7 C8.41542717 7.42171445 6.97104495 6.98385199 3.75 5.1875 C1 3 1 3 0 0 Z " fill="#7997EA" transform="translate(65,117)"/>
<path d="M0 0 C-0.639375 0.20625 -1.27875 0.4125 -1.9375 0.625 C-4.34925077 1.89538209 -4.34925077 1.89538209 -4.75 5.125 C-4.8325 6.07375 -4.915 7.0225 -5 8 C-5.66 7.67 -6.32 7.34 -7 7 C-7.40729228 4.67843403 -7.74438677 2.3431213 -8 0 C-2.25 -1.125 -2.25 -1.125 0 0 Z " fill="#6794E8" transform="translate(90,102)"/>
<path d="M0 0 C0.66 0 1.32 0 2 0 C1.47731534 2.76276177 0.89130413 5.3260876 0 8 C-1.32 7.34 -2.64 6.68 -4 6 C-3.34 6 -2.68 6 -2 6 C-1.34 4.02 -0.68 2.04 0 0 Z " fill="#16DBF8" transform="translate(22,52)"/>
<path d="M0 0 C1.125 1.75 1.125 1.75 2 4 C1.125 6.25 1.125 6.25 0 8 C-0.99 7.67 -1.98 7.34 -3 7 C-2.67 6.01 -2.34 5.02 -2 4 C-2.33 3.34 -2.66 2.68 -3 2 C-2.01 2 -1.02 2 0 2 C0 1.34 0 0.68 0 0 Z " fill="#AA28FB" transform="translate(164,168)"/>
<path d="M0 0 C0.99 0.33 1.98 0.66 3 1 C2.34 2.32 1.68 3.64 1 5 C-0.65 4.67 -2.3 4.34 -4 4 C-3.34 3.67 -2.68 3.34 -2 3 C-2 2.34 -2 1.68 -2 1 C-1.34 0.67 -0.68 0.34 0 0 Z " fill="#7C64F0" transform="translate(132,120)"/>
<path d="M0 0 C2.64 0.33 5.28 0.66 8 1 C6.71034824 2.37562854 5.37310707 3.70766393 4 5 C3.34 5 2.68 5 2 5 C1.34 3.35 0.68 1.7 0 0 Z " fill="#7E84F0" transform="translate(130,91)"/>
<path d="M0 0 C0.8125 1.6875 0.8125 1.6875 1 4 C-1.4375 6.75 -1.4375 6.75 -4 9 C-4 7.68 -4 6.36 -4 5 C-3.34 5 -2.68 5 -2 5 C-1.7834375 4.0409375 -1.7834375 4.0409375 -1.5625 3.0625 C-1 1 -1 1 0 0 Z " fill="#6991EF" transform="translate(95,92)"/>
<path d="M0 0 C0.66 0.66 1.32 1.32 2 2 C-4.75 6 -4.75 6 -7 6 C-7 4.68 -7 3.36 -7 2 C-4.69 1.34 -2.38 0.68 0 0 Z " fill="#DEE0EA" transform="translate(387,82)"/>
<path d="M0 0 C1.69752187 0.25245197 3.38471545 0.57645775 5.0625 0.9375 C5.98160156 1.13214844 6.90070313 1.32679687 7.84765625 1.52734375 C8.91306641 1.76130859 8.91306641 1.76130859 10 2 C10 2.33 10 2.66 10 3 C7.36 3.33 4.72 3.66 2 4 C2 3.34 2 2.68 2 2 C1.01 1.67 0.02 1.34 -1 1 C-0.67 0.67 -0.34 0.34 0 0 Z " fill="#5790EE" transform="translate(142,24)"/>
<path d="M0 0 C0.33 0.66 0.66 1.32 1 2 C1.66 2.33 2.32 2.66 3 3 C2.360625 3.226875 1.72125 3.45375 1.0625 3.6875 C-1.27193661 4.85250896 -1.27193661 4.85250896 -1.75 7.625 C-1.8325 8.40875 -1.915 9.1925 -2 10 C-3.01136941 7.26930259 -3.04557718 6.13998707 -2.125 3.3125 C-1 1 -1 1 0 0 Z " fill="#3AB1FA" transform="translate(62,72)"/>
<path d="M0 0 C0.7425 0.0825 1.485 0.165 2.25 0.25 C2.58 0.91 2.91 1.57 3.25 2.25 C-0.05 2.91 -3.35 3.57 -6.75 4.25 C-3.42692308 0.31153846 -3.42692308 0.31153846 0 0 Z " fill="#D1EAFE" transform="translate(126.75,58.75)"/>
<path d="M0 0 C-2.40921705 2.40921705 -4.94334509 3.53812156 -8 5 C-7.75 3.125 -7.75 3.125 -7 1 C-4.09342573 -1.03460199 -3.47133392 -1.15711131 0 0 Z " fill="#4C97F8" transform="translate(120,57)"/>
<path d="M0 0 C0.99 0.33 1.98 0.66 3 1 C3.6875 4.3125 3.6875 4.3125 4 8 C2.5625 9.9375 2.5625 9.9375 1 11 C0.34 10.67 -0.32 10.34 -1 10 C-0.34 9.01 0.32 8.02 1 7 C1.20497101 4.19872957 1.26272884 2.52545768 0 0 Z " fill="#7B78EA" transform="translate(122,102)"/>
<path d="M0 0 C0.33 0.66 0.66 1.32 1 2 C2.32 1.67 3.64 1.34 5 1 C5 1.99 5 2.98 5 4 C0.545 3.01 0.545 3.01 -4 2 C-2.68 1.34 -1.36 0.68 0 0 Z " fill="#4CA2F1" transform="translate(97,56)"/>
<path d="M0 0 C1.65 0.33 3.3 0.66 5 1 C4.67 1.99 4.34 2.98 4 4 C2.35 3.67 0.7 3.34 -1 3 C-0.67 2.01 -0.34 1.02 0 0 Z " fill="#AD27FD" transform="translate(148,178)"/>
</svg>
